<?xml version="1.0" encoding="utf-8"?>
<svg xmlns="http://www.w3.org/2000/svg" xmlns:xlink="http://www.w3.org/1999/xlink" version= "1.1" width="1396px" height="1397px" viewBox="-32 405 1396 1397">
<g id="layer1">
<g style="fill:rgb(6,137,156); fill-opacity:1.0; stroke-linejoin: miter">
<path d="M-37.615284,400.5384C-38.07227,400.5384,-38.51054,400.72012,-38.833637,401.04315C-39.156734,401.3663,-39.33831,401.80444,-39.33831,402.26135L-39.337074,1811.697C-39.337074,1812.6487,-38.56571,1813.4202,-37.614048,1813.4202L1370.6306,1813.4209C1371.0875,1813.4209,1371.526,1813.2393,1371.8492,1812.9163C1372.1721,1812.5933,1372.3536,1812.155,1372.3536,1811.698L1372.3525,402.26257C1372.3525,401.3112,1371.5812,400.5396,1370.6295,400.5396L-37.615284,400.5384 Z"/>
</g>
<g style="fill:rgb(255,255,255); fill-opacity:0.11372549; stroke-linejoin: miter">
<path d="M588.2273,1249.9825L45.069267,1336.5011Q47.914993,1371.0345,107.86181,1475.9801Q226.66768,1682.2504,253.66447,1695.7059L588.2273,1249.9825"/>
</g>
<g style="fill:rgb(49,52,64); fill-opacity:1.0; stroke-linejoin: miter">
<path d="M486.79883,1278.0396L501.26953,1303.1038L515.74023,1328.1685Q498.61212,1338.0574,481.4847,1347.946Q467.01358,1322.8818,452.5424,1297.8174Q469.67023,1287.9287,486.79883,1278.0396"/>
</g>
<g style="fill:rgb(63,67,79); fill-opacity:1.0; stroke-linejoin: miter">
<path d="M492.8817,1230.2639L526.5189,1288.5261L560.1564,1346.7886Q539.55835,1358.6807,518.9603,1370.573Q485.32233,1312.3113,451.68417,1254.0496Q472.2831,1242.1567,492.8817,1230.2639"/>
</g>
<g style="fill:rgb(41,43,55); fill-opacity:1.0; stroke-linejoin: miter">
<path d="M557.9646,1171.2395L600.38367,1244.7117L642.80286,1318.1843Q595.86206,1345.2854,548.9214,1372.3862Q506.5019,1298.9141,464.08237,1225.4421Q511.02338,1198.3408,557.9646,1171.2395"/>
</g>
<g style="fill:rgb(253,192,15); fill-opacity:1.0; stroke-linejoin: miter">
<path d="M919.89355,1059.7295C878.2477,987.59686,785.53064,962.6236,713.08923,1004.4476C710.4689,1005.96,707.4105,1008.13715,704.35144,1010.31415C687.629,1022.6403,673.41565,1038.2444,662.6776,1055.9526C650.9083,1075.0779,633.17773,1103.81,619.41724,1126.9619C613.0409,1137.6306,605.93665,1153.4463,566.5145,1174.1511L605.31104,1241.3523L644.2002,1308.706C681.99695,1284.8293,699.0913,1286.6741,711.5189,1286.4858C738.4492,1286.1453,772.04346,1285.2454,794.49084,1284.6157C815.34985,1284.0808,835.9707,1279.574,855.00635,1271.2554C858.4209,1269.6946,861.8358,1268.1343,864.45593,1266.6213C936.8976,1224.7974,961.5393,1131.862,919.89355,1059.7295 Z"/>
</g>
<g style="fill:rgb(226,163,5); fill-opacity:1.0; stroke-linejoin: miter">
<path d="M581.75476,1200.9048L566.3584,1174.2412C605.93665,1153.4463,612.8866,1137.7197,619.26306,1127.051C633.0232,1103.8992,650.60034,1075.2559,662.36926,1056.1306C673.26184,1038.3333,687.47485,1022.72943,704.19763,1010.403C707.2561,1008.22614,710.3148,1006.049,712.9352,1004.53644C763.64404,975.2597,824.21204,978.72076,870.3032,1008.0076C827.8097,993.49493,779.4343,996.55817,737.51086,1020.7625C734.73645,1022.36444,731.5233,1024.6304,728.2456,1027.1394C710.4441,1040.0884,695.41907,1056.7776,683.86865,1075.5713C671.37634,1095.936,652.63855,1126.4827,638.0011,1150.9631C631.2512,1162.0527,623.57837,1179.0186,581.75476,1200.9048 Z"/>
</g>
<g style="fill:rgb(63,67,79); fill-opacity:1.0; stroke-linejoin: miter">
<path d="M638.91077,1325.5288C636.90686,1326.6858,634.4758,1326.0342,633.3191,1324.0305L548.246,1176.6838C547.0906,1174.6794,547.7418,1172.2483,549.74585,1171.0911L557.298,1166.7307C559.30164,1165.574,561.73267,1166.2256,562.8895,1168.2292L647.87134,1315.4233C649.0288,1317.4263,648.37756,1319.8577,646.37427,1321.0142L638.82166,1325.3748 Z"/>
</g>
<g style="fill:rgb(63,67,79); fill-opacity:1.0; stroke-linejoin: miter">
<path d="M600.88477,1346.7981C598.8812,1347.9548,596.4501,1347.3032,595.2932,1345.2996L510.22015,1197.9526C509.06464,1195.948,509.71613,1193.5168,511.71985,1192.3601L519.27246,1187.9993C521.2759,1186.8425,523.7075,1187.4941,524.8644,1189.4978L609.8451,1336.6924C611.00354,1338.6951,610.3519,1341.1265,608.3484,1342.283L600.7958,1346.6438 Z"/>
</g>
<g style="fill:rgb(63,67,79); fill-opacity:1.0; stroke-linejoin: miter">
<path d="M578.2274,1359.8789C576.22424,1361.0356,573.7926,1360.384,572.636,1358.3806L487.5629,1211.0337C486.4074,1209.0293,487.05893,1206.5981,489.06238,1205.4414L496.61517,1201.0806C498.61877,1199.9238,501.0498,1200.5754,502.2066,1202.5791L587.18787,1349.7734C588.3463,1351.7764,587.6952,1354.2075,585.69104,1355.3645L578.1384,1359.7249 Z"/>
</g>
<g style="fill:rgb(254,217,111); fill-opacity:1.0; stroke-linejoin: miter">
<path d="M926.20703,1168.907C939.39966,1112.3799,908.34485,1063.9309,907.03406,1062.0161C903.433,1056.4915,896.0094,1055.0234,890.63855,1058.5354C885.1134,1062.136,883.6454,1069.5598,887.157,1074.9307C887.4241,1075.3931,913.9884,1116.7756,903.15845,1163.513C895.923,1194.4062,873.8983,1220.6855,837.54724,1242.0835C832.4612,1245.02,830.4353,1251.1218,832.5123,1256.499C832.7141,1257.2041,833.07007,1257.8208,833.33716,1258.2832C836.6295,1263.9858,843.8341,1265.7861,849.53674,1262.4937C891.74475,1237.7136,917.521,1206.1865,926.20703,1168.907 Z"/>
</g>
<g style="fill:rgb(255,255,255); fill-opacity:1.0; stroke-linejoin: miter">
<path d="M278.0967,845.97394L266.2372,844.25446L254.3779,842.5352Q258.07816,845.72565,261.77786,848.9161Q260.05142,853.44806,258.32547,857.9798L278.0967,845.97394"/>
</g>
<g style="fill:rgb(255,255,255); fill-opacity:1.0; stroke-linejoin: miter">
<path d="M268.24344,839.1922L267.96902,837.795L267.6945,836.398Q264.78622,842.8614,261.87784,849.32477Q266.98026,853.92084,272.08304,858.517L268.24344,839.1922"/>
</g>
<g style="fill:rgb(255,255,255); fill-opacity:1.0; stroke-linejoin: miter">
<path d="M815.72424,858.67236L803.86487,856.9529L792.00574,855.23346Q795.7053,858.4243,799.4053,861.61475Q797.6792,866.1465,795.9531,870.67847L815.72424,858.67236"/>
</g>
<g style="fill:rgb(255,255,255); fill-opacity:1.0; stroke-linejoin: miter">
<path d="M805.87134,851.8904L805.5967,850.49365L805.32227,849.09644Q802.4136,855.5598,799.5055,862.0232Q804.60803,866.61914,809.7106,871.2156L805.87134,851.8904"/>
</g>
<g style="fill:rgb(255,255,255); fill-opacity:1.0; stroke-linejoin: miter">
<path d="M455.6506,1658.1074L443.791,1656.3882L431.93195,1654.6685Q435.63174,1657.8591,439.33167,1661.05Q437.6056,1665.5813,435.8792,1670.113L455.6506,1658.1074"/>
</g>
<g style="fill:rgb(255,255,255); fill-opacity:1.0; stroke-linejoin: miter">
<path d="M445.79758,1651.3254L445.52298,1649.9287L445.24838,1648.5315Q442.34012,1654.9949,439.43158,1661.4583Q444.53442,1666.0544,449.637,1670.6509L445.79758,1651.3254"/>
</g>
<g style="fill:rgb(255,255,255); fill-opacity:1.0; stroke-linejoin: miter">
<path d="M280.75223,657.0615L268.89273,655.3423L257.03366,653.6229Q260.7335,656.8137,264.4335,660.0039Q262.70712,664.536,260.98135,669.06775L280.75223,657.0615"/>
</g>
<g style="fill:rgb(255,255,255); fill-opacity:1.0; stroke-linejoin: miter">
<path d="M270.8992,650.2799L270.6248,648.88293L270.35037,647.4857Q267.44193,653.9491,264.53348,660.4126Q269.63602,665.00867,274.73843,669.60486L270.8992,650.2799"/>
</g>
<g style="fill:rgb(255,255,255); fill-opacity:1.0; stroke-linejoin: miter">
<path d="M226.39926,739.6199L243.87155,742.1531L261.34396,744.68616Q255.89297,739.9855,250.4418,735.2848Q252.98502,728.6084,255.52829,721.9314L226.39926,739.6199"/>
</g>
<g style="fill:rgb(255,255,255); fill-opacity:1.0; stroke-linejoin: miter">
<path d="M240.91568,749.6115L241.32028,751.66986L241.72464,753.72797Q246.00974,744.2055,250.29453,734.683Q242.77689,727.9114,235.25912,721.13995L240.91568,749.6115"/>
</g>
<g style="fill:rgb(255,255,255); fill-opacity:1.0; stroke-linejoin: miter">
<path d="M1153.4469,849.7756L1170.919,852.3088L1188.3914,854.8421Q1182.9404,850.1412,1177.4894,845.4406Q1180.0326,838.7637,1182.5757,832.08704L1153.4469,849.7756"/>
</g>
<g style="fill:rgb(255,255,255); fill-opacity:1.0; stroke-linejoin: miter">
<path d="M1167.9631,859.76715L1168.3674,861.8254L1168.7722,863.884Q1173.0568,854.36127,1177.3416,844.8388Q1169.824,838.06726,1162.3063,831.2956L1167.9631,859.76715"/>
</g>
<g style="fill:rgb(255,255,255); fill-opacity:1.0; stroke-linejoin: miter">
<path d="M421.97552,1701.6304L432.98575,1706.3611L443.99588,1711.0913Q441.24802,1707.0518,438.49988,1703.0122Q441.34015,1699.0815,444.18054,1695.1514L421.97552,1701.6304"/>
</g>
<g style="fill:rgb(255,255,255); fill-opacity:1.0; stroke-linejoin: miter">
<path d="M429.73764,1710.7312L429.64102,1712.1516L429.54465,1713.5725Q434.0267,1708.082,438.50897,1702.5916Q434.76962,1696.8313,431.0305,1691.0708L429.73764,1710.7312"/>
</g>
<g style="fill:rgb(255,255,255); fill-opacity:1.0; stroke-linejoin: miter">
<path d="M734.32166,1545.6863L745.33167,1550.4163L756.3419,1555.1465Q753.5939,1551.1064,750.8457,1547.0671Q753.6863,1543.1372,756.5265,1539.2063L734.32166,1545.6863"/>
</g>
<g style="fill:rgb(255,255,255); fill-opacity:1.0; stroke-linejoin: miter">
<path d="M742.0836,1554.7866L741.98694,1556.207L741.891,1557.6282Q746.37256,1552.1372,750.855,1546.647Q747.1157,1540.887,743.37646,1535.1267L742.0836,1554.7866"/>
</g>
<g style="fill:rgb(255,255,255); fill-opacity:1.0; stroke-linejoin: miter">
<path d="M145.21683,1123.6355L156.22739,1128.3657L167.23752,1133.096Q164.48972,1129.0564,161.74155,1125.0168Q164.58163,1121.0864,167.42215,1117.1558L145.21683,1123.6355"/>
</g>
<g style="fill:rgb(255,255,255); fill-opacity:1.0; stroke-linejoin: miter">
<path d="M152.9794,1132.7361L152.88284,1134.1565L152.7864,1135.5774Q157.26828,1130.0869,161.7507,1124.5967Q158.01138,1118.8364,154.27225,1113.0762L152.9794,1132.7361"/>
</g>
<g style="fill:rgb(0,0,0); fill-opacity:0.99607843; stroke-linejoin: miter">
<path d="M516.2189,937.5876L515.775,937.1868Q511.10175,932.9405,503.52356,932.25604Q496.10785,931.17584,488.39185,933.9462Q474.0235,940.358,471.04962,955.29156Q468.4123,967.5131,473.9825,978.1403Q476.5399,982.5844,481.16428,986.3912Q486.5012,990.847,497.32642,997.0899L501.07947,1004.5151L516.2189,937.5876 Z"/>
</g>
<g style="fill:rgb(255,178,152); fill-opacity:1.0; stroke-linejoin: miter">
<path d="M502.41162,1010.29926L502.4123,1010.3033L502.41144,1010.30096L498.85773,1000.22186L496.8131,996.75836C499.36218,995.2691,501.09906,993.58295,501.9068,991.6502C502.66345,989.8392,502.80432,987.63544,502.28217,985.1186C501.83722,982.97504,501.2544,981.5279,500.7707,980.69586C500.45703,980.15717,500.18365,979.5994,499.82758,979.0981C497.54944,975.8853,496.38593,974.18036,496.38483,973.93964C495.8637,973.0849,495.39398,971.8945,495.49207,970.37286C495.7176,966.87823,497.1095,965.15985,499.13904,964.97174C499.6734,964.9216,500.49982,965.1496,501.72174,965.7021C502.13727,965.8896,503.84845,967.107,506.87512,969.40875C507.6125,969.9699,508.1206,970.0461,508.1565,969.7132C508.2259,969.07684,508.0348,968.4345,507.79138,967.78265C506.0252,963.04987,504.8772,959.811,504.3792,958.06146C503.46533,954.85016,503.14764,952.936,503.05396,952.36005C502.5102,949.0368,502.86066,945.56793,505.1485,942.39154C508.51178,937.7222,512.22815,936.0179,515.589,936.7392C520.4756,941.1326,523.3541,944.2188,524.4352,945.86725C525.63354,947.6962,526.1687,949.81757,525.83777,952.37274C532.86816,956.1192,536.5674,958.7619,537.4104,960.017C538.4531,961.5694,537.5542,963.0976,534.2715,964.93195C536.1117,967.0336,537.0443,968.472,537.2439,969.20734C537.4669,970.0278,537.1664,970.9122,536.16956,971.91437C537.1116,971.60077,537.79004,972.0212,538.13086,973.19794C538.4335,974.24005,538.60876,976.1281,538.7306,978.8421C540.3113,981.24554,541.2783,983.1149,541.44324,984.4788C541.6023,985.7967,541.36536,986.6945,540.9204,987.1529C540.4354,988.16205,538.5403,989.59784,535.2356,991.4632L528.5398,992.57623L530.4193,1016.78265L502.41162,1010.29926L502.4123,1010.3033 Z"/>
</g>
<g style="fill:rgb(0,0,0); fill-opacity:0.99607843; stroke-linejoin: miter">
<path d="M515.89575,958.1662L515.9734,957.7889Q516.4369,955.28326,517.2156,954.0413Q517.39087,953.7674,517.5958,953.5251Q517.68384,953.38934,518.2644,952.8587Q518.85754,952.34076,520.0924,951.5881Q518.71216,953.31085,518.0112,954.43Q517.3125,955.5024,515.89575,958.1662 Z"/>
</g>
<g style="fill:rgb(0,0,0); fill-opacity:0.99607843; stroke-linejoin: miter">
<path d="M521.5553,960.9196L521.55566,960.9206L521.556,960.92194L521.5553,960.9196 Z"/>
</g>
<g style="fill:rgb(255,255,255); fill-opacity:0.99607843; stroke-linejoin: miter">
<path d="M518.8966,958.6049L518.8966,958.6049L519.99,954.2044Q520.87634,954.2963,521.28894,954.56647Q521.70764,954.79694,522.4844,955.70636L518.8966,958.6049 Z"/>
</g>
<g style="fill:rgb(0,0,0); fill-opacity:0.99607843; stroke-linejoin: miter">
<path d="M519.95215,954.20905L520.4779,955.9329L522.37256,955.7452Q522.04236,955.16974,521.8336,954.9096Q521.62134,954.6578,521.5707,954.6248Q521.4779,954.5422,521.3772,954.47723Q521.27673,954.415,521.16736,954.3697Q521.11755,954.3376,520.8252,954.27057Q520.53,954.21075,519.95215,954.20905 Z"/>
</g>
<g style="fill:rgb(0,0,0); fill-opacity:0.99607843; stroke-linejoin: miter">
<path d="M493.37415,924.1154L493.37463,924.1159L493.37415,924.1154L493.37463,924.1159 Z"/>
</g>
<g style="fill:rgb(0,0,0); fill-opacity:1.0; stroke-linejoin: miter">
<path d="M495.3805,1002.972L512.7051,1002.82245L530.0299,1002.6729Q532.00305,1008.15826,533.9761,1013.644Q516.8458,1016.3166,499.71527,1018.9886L495.3805,1002.972"/>
</g>
<g style="fill:rgb(255,255,255); fill-opacity:1.0; stroke-linejoin: miter">
<path d="M499.74164,905.16376L499.74188,905.1641L499.74194,905.16437L499.74164,905.16376"/>
</g>
<g style="fill:rgb(0,0,0); fill-opacity:1.0; stroke-linejoin: miter">
<path d="M545.21594,1001.93036L545.21606,1001.9307L545.2162,1001.9307L545.21594,1001.93036"/>
</g>
<g style="fill:rgb(0,0,0); fill-opacity:1.0; stroke-linejoin: miter">
<path d="M529.1289,970.3204L529.1289,970.3206L529.1293,970.3206L529.1289,970.3204"/>
</g>
<g style="fill:rgb(0,0,0); fill-opacity:1.0; stroke-linejoin: miter">
<path d="M531.004,1034.3845L587.6199,1032.4363L644.2355,1030.487Q644.7676,1045.9277,645.29956,1061.3684Q588.6843,1063.3213,532.0687,1065.2737Q531.5366,1049.8293,531.004,1034.3845"/>
</g>
<g style="fill:rgb(0,0,0); fill-opacity:1.0; stroke-linejoin: miter">
<path d="M549.6997,1116.4102L549.70166,1116.4136L549.19165,1111.532L545.0043,1107.6787L541.3179,1109.4021L528.56616,1127.3032C538.55286,1141.4341,550.28894,1179.0156,562.6272,1181.436C568.928,1182.6719,573.7854,1182.508,577.13525,1181.9456C579.225,1181.5952,581.3815,1181.3789,583.56116,1180.9795L603.1206,1177.019C607.33325,1176.2588,611.2665,1176.001,614.91846,1175.9329C620.5857,1175.8274,717.895,1233.9692,660.1692,1175.4319L687.1835,1193.7764C680.6294,1192.1609,683.8153,1154.4121,668.6915,1139.825C648.0405,1119.9094,608.11145,1121.8989,599.3766,1122.1672L574.43896,1098.7366L554.5194,1103.0452L539.64905,1118.373L545.8523,1119.1023L548.9303,1111.4973L547.2224,1112.2104 Z"/>
</g>
<g style="fill:rgb(0,0,0); fill-opacity:1.0; stroke-linejoin: miter">
<path d="M499.14215,1017.4725L499.14423,1017.47614Q492.30542,1033.5208,491.36566,1043.7126Q489.71228,1055.7085,495.53735,1071.0413Q499.7704,1081.448,506.26978,1092.4883Q509.84576,1098.7695,525.05383,1123.175Q527.7423,1127.6694,529.7272,1131.4783Q531.0537,1133.7449,534.4032,1141.552Q535.9789,1145.345,539.3574,1155.646Q541.23364,1160.2749,541.86816,1161.075Q546.5138,1168.856,557.64294,1178.6675L607.00024,1117.4609Q602.2202,1118.5459,597.09717,1116.5559Q592.71094,1113.8499,591.7167,1112.261Q589.8489,1110.1648,587.8541,1106.9309Q583.8474,1100.2661,579.3087,1089.019L562.83765,1047.3882Q558.0747,1036.1018,553.5498,1028.9033Q546.6847,1016.7591,531.8716,1008.382L499.14215,1017.4725"/>
</g>
<g style="fill:rgb(255,255,255); fill-opacity:0.99607843; stroke-linejoin: miter">
<path d="M529.12866,1121.5508L529.1301,1121.5518L529.1293,1121.5508L529.12866,1121.5508"/>
</g>
<g style="fill:rgb(0,0,0); fill-opacity:1.0; stroke-linejoin: miter">
<path d="M530.4823,1044.0679L587.0978,1042.1187L643.7134,1040.1694Q644.2451,1055.6106,644.77686,1071.051Q588.1621,1073.0034,531.547,1074.9568Q531.0144,1059.5115,530.4823,1044.0679"/>
</g>
<g style="fill:rgb(0,0,0); fill-opacity:1.0; stroke-linejoin: miter">
<path d="M556.4988,1033.51Q556.74194,1033.9673,556.9817,1034.4258L556.6654,1034.2822Q557.022,1034.9568,557.3838,1035.6538L560.8452,1033.3572L556.5029,1033.5071 Z"/>
</g>
<g style="fill:rgb(0,0,0); fill-opacity:1.0; stroke-linejoin: miter">
<path d="M534.004,1009.2215L537.87244,1018.7421L546.94495,1021.5799L554.3342,1033.5818L555.0713,1033.5564L556.65845,1034.2786Q556.4525,1033.8945,556.24695,1033.5186L556.4978,1033.5073Q555.51953,1031.665,554.49207,1029.8359Q550.92737,1023.5672,547.29834,1019.9759Q542.74316,1015.39044,534.23047,1009.3615L534.004,1009.2215 Z"/>
</g>
<g style="fill:rgb(0,0,0); fill-opacity:0.99607843; stroke-linejoin: miter">
<path d="M741.912,1267.1809L743.15173,1267.3877Q751.83374,1268.8169,756.04456,1267.6738Q758.4866,1267.1704,760.81055,1266.1853Q762.1382,1265.6272,763.4874,1264.9597Q772.202,1260.4202,772.61255,1260.4177Q775.77527,1259.117,777.59973,1259.3105Q779.9098,1259.1877,781.7805,1262.7979Q783.1725,1266.4106,781.7396,1271.013Q780.2811,1276.2205,771.5204,1282.6638Q770.76855,1283.2622,766.5442,1286.124L737.6703,1305.4683Q734.386,1308.2439,732.5818,1309.3894Q728.57227,1311.8572,726.28516,1311.2358Q723.40234,1310.8296,720.2632,1306.1448Q718.21765,1303.6333,712.3688,1290.425L727.08496,1290.6636L741.912,1267.1809 Z"/>
</g>
<g style="fill:rgb(0,0,0); fill-opacity:1.0; stroke-linejoin: miter">
<path d="M748.16284,1268.0876L707.9513,1204.9724L667.73987,1141.8574Q653.97766,1160.9741,640.21594,1180.0918L687.30005,1248.8047Q702.92004,1275.615,718.5394,1302.425L748.16284,1268.0876"/>
</g>
<g style="fill:rgb(255,255,255); fill-opacity:1.0; stroke-linejoin: miter">
<path d="M676.3966,1143.3467L676.3967,1143.3472L676.3966,1143.3474L676.3966,1143.3467"/>
</g>
<g style="fill:rgb(255,178,152); fill-opacity:0.99607843; stroke-linejoin: miter">
<path d="M639.2012,1031.8813L667.0929,1024.8022L674.82227,1044.9556Q675.72266,1047.6301,675.4321,1050.029Q675.1417,1052.4277,672.7081,1054.3306Q671.2252,1055.4639,668.5365,1056.4258Q666.52405,1057.1389,663.99097,1057.7317Q655.1255,1059.8074,634.9481,1061.625L639.2012,1031.8813"/>
</g>
<g style="fill:rgb(255,178,152); fill-opacity:0.99607843; stroke-linejoin: miter">
<path d="M638.67883,1041.5642L666.57117,1034.4849L674.2993,1054.6375Q675.2001,1057.3123,674.90955,1059.7107Q674.61914,1062.1096,672.18555,1064.0125Q670.70264,1065.1453,668.015,1066.1072Q666.0017,1066.8215,663.46875,1067.4143Q654.6028,1069.4895,634.4252,1071.3066L638.67883,1041.5642"/>
</g>
<g style="fill:rgb(105,232,251); fill-opacity:1.0; stroke-linejoin: miter">
<path d="M594.1631,719.92926C595.291,715.7236,595.82874,711.38477,595.7634,706.9899C595.3694,681.0047,573.9103,660.18384,547.9243,660.57776C537.1145,660.7389,526.61145,664.6527,518.34973,671.5958C511.0023,677.77,505.68958,686.09094,503.1753,695.2766C485.7624,693.9136,470.2084,705.18536,465.53973,721.3647C462.89835,720.804,460.2033,720.5422,457.49146,720.585C437.49368,720.887,421.468,737.2846,421.76962,757.2837C422.07294,777.28455,438.58658,793.1906,458.58472,792.88855L585.20544,790.97614C605.20483,790.67377,621.229,774.2733,620.92676,754.27454C620.67944,737.91187,609.63904,724.09247,594.1631,719.92926 Z"/>
</g>
<g style="fill:rgb(105,232,251); fill-opacity:1.0; stroke-linejoin: miter">
<path d="M974.78516,581.3702C974.2606,579.4145,974.0106,577.3969,974.041,575.35297C974.22424,563.2697,984.20325,553.58795,996.28735,553.77106C1001.31396,553.846,1006.1981,555.6662,1010.04004,558.8946C1013.45654,561.7658,1015.9271,565.6353,1017.09644,569.90656C1025.1938,569.2729,1032.4266,574.5146,1034.5977,582.03815C1035.8262,581.7774,1037.0792,581.6558,1038.3403,581.6755C1047.6399,581.816,1055.0922,589.44135,1054.9518,598.74115C1054.8105,608.04205,1047.1311,615.4382,1037.8315,615.2979L978.9503,614.40765C969.6504,614.267,962.19885,606.64044,962.3395,597.34076C962.4546,589.7321,967.5886,583.3062,974.78516,581.3702 Z"/>
</g>
<g style="fill:rgb(105,232,251); fill-opacity:1.0; stroke-linejoin: miter">
<path d="M1001.81323,1416.9939C1002.55725,1414.219,1002.9121,1411.3567,1002.869,1408.4563C1002.609,1391.3108,988.4496,1377.5735,971.3032,1377.8337C964.1708,1377.9402,957.24023,1380.5227,951.7892,1385.1033C946.94116,1389.1775,943.4358,1394.6682,941.7765,1400.7292C930.2871,1399.8303,920.0243,1407.2676,916.9437,1417.9429C915.2009,1417.5732,913.4226,1417.4004,911.6332,1417.4287C898.4381,1417.6284,887.8639,1428.448,888.06323,1441.6438C888.26355,1454.8403,899.16003,1465.3354,912.35547,1465.136L995.9033,1463.8718C1009.09924,1463.6719,1019.6725,1452.8508,1019.47266,1439.6553C1019.3092,1428.8589,1012.0248,1419.741,1001.81323,1416.9939 Z"/>
</g>
<g style="fill:rgb(105,232,251); fill-opacity:1.0; stroke-linejoin: miter">
<path d="M208.6473,972.2137C208.12282,970.258,207.87282,968.2404,207.90321,966.1965C208.08644,954.1132,218.06538,944.43146,230.14949,944.61456C235.17616,944.6895,240.06032,946.5097,243.90218,949.7381C247.31874,952.6093,249.78932,956.4788,250.95863,960.75006C259.05606,960.1164,266.28885,965.3581,268.45993,972.88165C269.68832,972.6209,270.94144,972.4993,272.20255,972.519C281.5021,972.6595,288.95438,980.28485,288.814,989.58466C288.67276,998.88556,280.99332,1006.2817,271.6937,1006.1414L212.81245,1005.25116C203.51253,1005.11053,196.06099,997.48395,196.20168,988.18427C196.31673,980.5756,201.45076,974.1497,208.6473,972.2137 Z"/>
</g>
<g style="fill:rgb(105,232,251); fill-opacity:1.0; stroke-linejoin: miter">
<path d="M1111.2068,1132.5061C1110.6823,1130.5503,1110.4323,1128.5327,1110.4626,1126.4888C1110.6459,1114.4055,1120.6248,1104.7239,1132.709,1104.907C1137.7356,1104.9819,1142.6198,1106.802,1146.4617,1110.0305C1149.8782,1112.9016,1152.3488,1116.7712,1153.5181,1121.0425C1161.6155,1120.4087,1168.8483,1125.6504,1171.0193,1133.1741C1172.2478,1132.9133,1173.5009,1132.7917,1174.762,1132.8113C1184.0615,1132.9519,1191.5138,1140.5771,1191.3734,1149.877C1191.2322,1159.178,1183.5527,1166.574,1174.2532,1166.4338L1115.3718,1165.5435C1106.072,1165.4028,1098.6204,1157.7764,1098.7611,1148.4766C1098.8762,1140.8679,1104.0103,1134.4421,1111.2068,1132.5061 Z"/>
</g>
</g>
</svg>